Coordinates
version=1
nRows=13
nColumns=34
inDegrees=yes

Units are S.I. units (second, meters, Newtons, ...)
If the header above contains a line with 'inDegrees', this indicates whether rotational values are in degrees (yes) or radians (no).

endheader
time	pelvis_tilt	pelvis_list	pelvis_rotation	pelvis_tx	pelvis_ty	pelvis_tz	hip_flexion_r	hip_adduction_r	hip_rotation_r	knee_angle_r	ankle_angle_r	subtalar_angle_r	mtp_angle_r	hip_flexion_l	hip_adduction_l	hip_rotation_l	knee_angle_l	ankle_angle_l	subtalar_angle_l	mtp_angle_l	lumbar_extension	lumbar_bending	lumbar_rotation	arm_flex_r	arm_add_r	arm_rot_r	elbow_flex_r	pro_sup_r	arm_flex_l	arm_add_l	arm_rot_l	elbow_flex_l	pro_sup_l
      2.70000000	      2.32565234	     -2.15554879	     -2.26969736	      0.10401384	      0.89291842	      0.28043664	    -22.49143440	      6.25512415	     -1.64245110	     -9.04975658	     12.82035863	      8.30373748	      7.98885148	     26.06318232	      0.24087112	     -6.79650190	     -8.53873910	      3.20388383	      3.95688142	     11.77179365	     -7.20048419	      3.61983763	      5.77796344	     -0.35742596	    -23.05456002	      7.77336541	     38.89660424	     90.00000000	     -7.90745217	    -12.41654826	     15.15387010	     14.26287192	     90.00000000
      2.71000000	      2.22483508	     -1.76247899	     -2.47409776	      0.12007210	      0.89116024	      0.28139190	    -22.92545045	      5.70070157	     -1.39805773	     -9.94831927	     12.34082742	      8.37840602	      8.09650184	     26.23601212	      0.65577270	     -6.73380556	    -10.43598217	      3.48064041	      3.52021188	     11.77422421	     -6.74164673	      3.03865348	      5.85560740	     -0.86731260	    -22.80615925	      7.65358385	     38.98485611	     90.00000000	     -8.43536823	    -12.64500588	     14.93366063	     14.52305369	     90.00000000
      2.72000000	      2.10847192	     -1.42218140	     -2.72933095	      0.13619567	      0.89008308	      0.28188868	    -23.05527622	      5.09861632	     -1.47747648	    -11.29697674	     11.48282595	      8.83233267	      8.48611816	     26.08301284	      1.08720993	     -6.36197921	    -11.75498209	      2.03327113	      2.87853159	     11.44949366	     -6.26134770	      2.57827634	      6.01317207	     -1.40658593	    -22.52285425	      7.36586531	     38.84001238	     90.00000000	     -8.73506065	    -12.66197078	     14.64853415	     14.43802052	     90.00000000
      2.73000000	      1.98811341	     -1.06130937	     -2.82842556	      0.15220198	      0.88937331	      0.28235031	    -23.12782041	      4.55217598	     -1.58357705	    -12.64489466	     10.39637010	      9.19361898	      8.75203969	     25.83042206	      1.52383843	     -6.43892387	    -12.15335621	     -2.66990190	      2.43076184	     10.56589159	     -5.77979605	      2.06723925	      5.99361124	     -1.90313514	    -22.26592009	      7.16486350	     38.69021599	     90.00000000	     -9.09588112	    -12.81481748	     14.44721668	     14.49673020	     90.00000000
      2.74000000	      1.93752423	     -0.10794586	     -2.74503271	      0.16821047	      0.88915345	      0.28193527	    -22.97098118	      3.38272824	     -2.19749189	    -14.47285158	      9.38999015	      9.98630334	     10.57835387	     25.44207946	      2.76728171	     -5.40082102	    -12.47407446	     -4.78258412	     -0.51870490	     10.22476699	     -5.31458642	      0.94513314	      5.65420309	     -2.10720613	    -21.70804965	      6.68441847	     37.67685993	     90.00000000	     -9.26263564	    -12.85840877	     14.71212366	     13.91615959	     90.00000000
      2.75000000	      1.63129296	      0.56055456	     -2.43162914	      0.18384958	      0.88887130	      0.28153543	    -22.43803448	      2.67576464	     -2.61756779	    -16.31868449	      6.91142630	     10.14932332	     16.26077066	     25.82315945	      3.66438103	     -4.26007564	    -14.09256436	     -6.61254649	     -2.12336820	     10.77192994	     -4.63677212	      0.16967245	      5.10813310	     -2.56486495	    -21.39916494	      6.82296212	     37.39204324	     90.00000000	     -9.43258253	    -13.02178626	     15.70592516	     13.65462628	     90.00000000
      2.76000000	      1.26654575	      1.14854534	     -2.19879631	      0.19923919	      0.88904324	      0.28164546	    -21.60522473	      2.08999998	     -2.61310747	    -18.51845627	      4.77977921	      9.54443019	     16.84758293	     26.42905961	      4.31458420	     -3.54361181	    -16.28250713	     -7.03792229	     -2.94489431	     10.70675566	     -3.92899479	     -0.58813529	      4.63563809	     -2.90044923	    -20.79450427	      6.34657683	     36.59033123	     90.00000000	     -9.57120342	    -13.12880992	     15.38162592	     13.35690480	     90.00000000
      2.77000000	      0.96408126	      1.70192275	     -1.91167652	      0.21451389	      0.88957741	      0.28170969	    -20.63551025	      1.58586424	     -2.59828081	    -20.82111788	      0.74238396	      8.16480667	     25.67292694	     26.84066248	      4.98836134	     -2.89512838	    -18.14650060	     -7.45722445	     -4.39821849	     10.89936112	     -3.29969422	     -1.29499379	      4.15746206	     -3.26430920	    -20.30050671	      6.27439225	     35.79477293	     90.00000000	     -9.64005176	    -13.27115754	     15.92207968	     13.10922884	     90.00000000
      2.78000000	      0.86178177	      2.33385430	     -1.68213853	      0.22990397	      0.89054883	      0.28184386	    -19.55250363	      0.85087710	     -3.03654653	    -23.70645238	     -2.34696171	      7.88512057	     25.72963459	     26.79982170	      5.72076440	     -2.32018494	    -19.50211079	     -7.86523320	     -5.16307726	     10.84267905	     -2.92682306	     -2.09872528	      3.77827203	     -3.84723829	    -19.81346628	      5.90902484	     35.44323990	     90.00000000	     -9.76270789	    -13.46461704	     15.66837019	     13.24596443	     90.00000000
      2.79000000	      0.79737149	      3.04028440	     -1.42896308	      0.24497338	      0.89168462	      0.28157169	    -18.24605460	     -0.06189411	     -3.74631272	    -26.73099675	     -7.27676392	      6.99418832	     35.53495997	     26.55460167	      6.71228126	     -1.40410742	    -20.62203683	     -7.59356844	     -6.38221564	     10.75470571	     -2.65258860	     -2.92493892	      3.39191880	     -4.38026494	    -19.31450923	      5.22197891	     34.96460043	     90.00000000	     -9.73051001	    -13.63008123	     15.50883549	     13.21816651	     90.00000000
      2.80000000	      0.85070018	      3.72579148	     -1.37473206	      0.25971502	      0.89320697	      0.28166466	    -16.85967030	     -1.02938259	     -4.02895551	    -30.01215298	    -10.73384866	      6.72405654	     35.29933681	     26.07437533	      7.58075766	     -0.84621424	    -21.74787211	     -6.40827938	     -6.30645638	     10.84676804	     -2.59164889	     -3.71835485	      3.20487406	     -4.96943605	    -18.94718193	      4.99552626	     34.79304230	     90.00000000	     -9.70801329	    -13.84679110	     15.22416880	     13.62491618	     90.00000000
      2.81000000	      0.87800370	      4.35127510	     -1.33162293	      0.27419493	      0.89484508	      0.28181336	    -15.26843069	     -1.87952733	     -3.98672177	    -33.41971184	    -13.71742573	      6.22540152	     35.07074341	     25.42791021	      8.36905203	     -0.40606899	    -22.42810219	     -5.40852548	     -6.33147070	     10.81802434	     -2.52340684	     -4.44240114	      3.01865136	     -5.50032040	    -18.55027324	      4.67385212	     34.45475968	     90.00000000	     -9.62817259	    -14.02301010	     14.94255577	     13.96531383	     90.00000000
      2.82000000	      0.79428664	      5.15774176	     -1.44605248	      0.28810662	      0.89631985	      0.28151483	    -13.31762691	     -2.87104622	     -3.37270397	    -37.03659013	    -16.44187949	      5.29919040	     34.77489197	     24.75815931	      9.33331750	     -0.13985858	    -22.75259507	     -4.34657004	     -6.93828807	     10.76539068	     -2.38369423	     -5.27627453	      2.96006848	     -5.95750643	    -18.22982422	      4.28589866	     34.09673185	     90.00000000	     -9.44141972	    -14.14092846	     14.58648537	     14.26640289	     90.00000000
